<svg xmlns="http://www.w3.org/2000/svg" width="40" height="40" viewbox="0 0 40 40">
  <path fill="#FFF" d="M20 0a20 20 0 1 0 .01 40.01A20 20 0 0 0 20 0zm0 1.21a18.78 18.78 0 1 1 0 37.58A18.78 18.78 0 1 1 20 1.2zm0 1.21a1.21 1.21 0 1 0 0 2.43 1.21 1.21 0 0 0 0-2.43zM15.77 3.6h-.04a.6.6 0 1 0 .04 0zm8.46 0a.6.6 0 0 0-.15 1.2.6.6 0 0 0 .68-.9.61.61 0 0 0-.37-.28.77.77 0 0 0-.16-.02zM11.8 5.22a.61.61 0 0 0-.57.45.61.61 0 0 0 .06.46.6.6 0 0 0 .37.28.6.6 0 0 0 .46-.06.6.6 0 0 0-.31-1.13zm16.36 0a.6.6 0 1 0 .05 1.22.6.6 0 0 0-.06-1.22zM8.44 7.82A.61.61 0 0 0 8 8a.6.6 0 0 0 0 .86.6.6 0 0 0 .86 0 .6.6 0 0 0 0-.86.6.6 0 0 0-.42-.18zm23.14 0a.61.61 0 0 0-.44.18.6.6 0 0 0 0 .86.6.6 0 0 0 .86 0A.6.6 0 0 0 32 8a.6.6 0 0 0-.42-.18zm-7.22.85l-3.97 8.95a2.46 2.46 0 0 0-.4-.04 2.43 2.43 0 0 0-2.4 2.42A2.43 2.43 0 0 0 20 22.42c.45 0 .86-.13 1.22-.34l5.1 5.1.86-.85-5.1-5.1a2.41 2.41 0 0 0-.58-3.1l3.97-8.97-1.11-.49zm9.8 2.54zm-28.36 0a.6.6 0 1 0 .06 1.21.6.6 0 0 0-.06-1.2zm-1.61 3.95a.6.6 0 1 0 .16.02.53.53 0 0 0-.16-.02zm31.64 0a.6.6 0 0 0-.61.76.6.6 0 0 0 .74.43.61.61 0 0 0 .43-.74.61.61 0 0 0-.56-.45zM3.63 18.8a1.21 1.21 0 1 0 0 2.42 1.21 1.21 0 0 0 0-2.42zm16.37 0c.68 0 1.21.53 1.21 1.21a1.2 1.2 0 0 1-1.2 1.21A1.2 1.2 0 0 1 18.78 20c0-.68.53-1.21 1.21-1.21zm16.37 0a1.21 1.21 0 1 0 0 2.42 1.21 1.21 0 0 0 0-2.42zM4.22 23.63a.61.61 0 0 0-.61.76.6.6 0 0 0 .74.43.6.6 0 0 0-.13-1.19zm31.58 0a.61.61 0 0 0-.58.45.6.6 0 1 0 .74-.43.56.56 0 0 0-.16-.02zM5.81 27.58a.6.6 0 0 0-.14 1.19.59.59 0 0 0 .46-.06.59.59 0 0 0 .28-.37.6.6 0 0 0-.06-.46.61.61 0 0 0-.54-.3zm28.33 0a.6.6 0 1 0 .33.08.6.6 0 0 0-.33-.08zm-25.7 3.39A.6.6 0 0 0 8 32a.6.6 0 0 0 .86 0 .6.6 0 0 0 0-.86.58.58 0 0 0-.42-.17zm23.14 0a.6.6 0 0 0-.44 1.03.6.6 0 0 0 .86 0 .6.6 0 0 0 0-.86.58.58 0 0 0-.42-.17zm-3.41 2.6a.62.62 0 0 0-.3.08.6.6 0 0 0-.21.82c.16.3.53.4.83.23a.62.62 0 0 0 .28-.37.6.6 0 0 0-.6-.77zm-16.38 0a.61.61 0 0 0-.5.3.61.61 0 0 0-.06.46.6.6 0 0 0 1.11.15.6.6 0 0 0-.22-.83.6.6 0 0 0-.33-.08zM20 35.15a1.21 1.21 0 1 0 0 2.42 1.21 1.21 0 0 0 0-2.42zm-4.24.05a.6.6 0 0 0-.58.45.6.6 0 1 0 1.17.31.6.6 0 0 0-.6-.76zm8.5 0a.6.6 0 0 0-.61.76.6.6 0 1 0 .6-.76z"/>
</svg>
