<svg data-name="Camada 1" xmlns="http://www.w3.org/2000/svg" viewBox="0 0 800 800"><title>pattern-treino</title><g fill="#38404f"><path d="M251.41 108a15.13 15.13 0 0 0-9.18-8.67l-9-3.16 1.41-4a11.59 11.59 0 0 0-7.08-14.76l-13.67-4.81a11.6 11.6 0 0 0-14.77 7.08l-9.8 27.89-72-25.31 9.81-27.89a11.59 11.59 0 0 0-7.08-14.76l-13.67-4.81a11.58 11.58 0 0 0-14.77 7.08l-1.4 4-9.72-3.42c-9.13-3.21-19.79 1.46-22.8 10L44.67 89.62C41.38 99 48.24 107.9 56.49 110.8l9.72 3.42-2.46 7A11.58 11.58 0 0 0 70.83 136l13.67 4.81a11.58 11.58 0 0 0 14.76-7.08l10.86-30.87 72 25.3-10.9 30.84a11.58 11.58 0 0 0 7.08 14.76l13.7 4.82a11.6 11.6 0 0 0 14.76-7.08l2.46-7 9 3.16a17.39 17.39 0 0 0 5.77 1 14.48 14.48 0 0 0 6.53-1.53 16.14 16.14 0 0 0 7.91-9.42l13.07-37.16a17.87 17.87 0 0 0-.09-12.55zm-192.93-2.86c-5.48-1.94-10.22-7.67-8.15-13.53l13.06-37.16c1.5-4.25 6.23-7 11.1-7a12.3 12.3 0 0 1 4 .68l9.71 3.42-9.63 27.5-10.37 29.51zm49.11-13.22l-14 39.79a5.57 5.57 0 0 1-7.11 3.41l-13.67-4.81a5.58 5.58 0 0 1-3.41-7.11l2.46-7L82.2 86.83l15.11-43a5.61 5.61 0 0 1 2.85-3.18 5.56 5.56 0 0 1 4.27-.23l13.67 4.81a5.58 5.58 0 0 1 3.41 7.11l-9.81 27.91zm4.52 5.25l2.48-7.06.78-2.21 72 25.31-3.26 9.26zm96.13 51.94l-7.17 20.4a5.58 5.58 0 0 1-7.11 3.41l-13.67-4.81a5.57 5.57 0 0 1-3.41-7.11l10.86-30.87 7.26-20.59 9.81-27.89a5.58 5.58 0 0 1 5.19-3.73 5.72 5.72 0 0 1 1.85.32l13.67 4.81a5.58 5.58 0 0 1 3.48 7.11l-1.41 4zm37.57-30.5l-13.07 37.16a10.26 10.26 0 0 1-4.93 6 9.6 9.6 0 0 1-7.63.2l-9-3.16 12.67-36 7.39-21 9 3.16a9.08 9.08 0 0 1 5.61 5.25 12 12 0 0 1-.04 8.39zm281.36-49.45a78.66 78.66 0 0 0-30.45-40.1l2.5-4.67.55.27a8 8 0 0 0 3.65.87 8.24 8.24 0 0 0 7.27-4.32 8 8 0 0 0-3.42-10.86L491.75 2.5a8.24 8.24 0 0 0-10.92 3.45 7.92 7.92 0 0 0 3.42 10.86l.42.22-2.28 4.25a82.3 82.3 0 0 0-49.79-4.49l-3.23-9.59 7.1-2.39A10.25 10.25 0 0 0 442.22 0H432l-28.6 9.63a4.34 4.34 0 0 1-5.5-2.73l-.06-.17a4.34 4.34 0 0 1 2.72-5.5L404.21 0H393.1a10.29 10.29 0 0 0-1 8.64l.06.18a10.37 10.37 0 0 0 9.81 7 10.24 10.24 0 0 0 3.29-.55l4.29-1.44 3.33 9.86c-36 18-54.38 59.58-41.45 97.93C382.72 155 414.29 176 448.3 176a83.59 83.59 0 0 0 26.7-4.4 82.59 82.59 0 0 0 47.51-40.83 79 79 0 0 0 4.66-61.61zm-41-60.38a2.21 2.21 0 0 1 2.83-.93l15.52 7.85a2 2 0 0 1 1 1.16 1.93 1.93 0 0 1-.15 1.52 2.21 2.21 0 0 1-2.93.93l-2.38-1.2-12.56-6.38-.54-.27a1.91 1.91 0 0 1-1-1.15 2 2 0 0 1 .16-1.53zm7.75 12.9l-2 3.81-3.92-1.95 2-3.8zM423.69 9.12l2.83 8.4-8.4 2.83-2.83-8.4zM517.16 128a77.62 77.62 0 0 1-68.87 42c-31.5 0-60.73-19.4-71.13-50.22-13.1-38.85 8.62-81.38 48.4-94.79a77.77 77.77 0 0 1 24.92-4.12 76 76 0 0 1 33.1 7.57A73.13 73.13 0 0 1 517.16 128z"/><path d="M508.82 77.64a62.46 62.46 0 0 0-31.1-36 60.93 60.93 0 0 0-47.34-3.41l-2.85 1 20.92 62 61.33-20.68zm-56.61 15.92L435.16 43a55 55 0 0 1 39.85 4 56.45 56.45 0 0 1 27.1 29.79zM741.5 128.8c-25-3.66-40.71 10.16-47.28 17.7-4.09-9.66-15.43-28.93-41.12-30.34-20.56-1.13-39.5 13.17-45 34a46.88 46.88 0 0 0-1 20 41.06 41.06 0 0 0 5.42 14.3l.08.13 62.55 92.93a3 3 0 0 0 4.39.64l86.71-71.4a.52.52 0 0 0 .11-.1l.51-.48a3 3 0 0 0 3.38-2.53 3.14 3.14 0 0 0 0-1 36.26 36.26 0 0 0 4.33-6.21 46.58 46.58 0 0 0 5.24-16c3.39-24.87-13.82-48.05-38.32-51.64zm-63.22 142.65l-60.66-90.11c-.22-.37-.42-.74-.63-1.11l26.27 3.84a3 3 0 0 0 2.84-1.17l12.9-17.41 9.4 56.06a3 3 0 0 0 2.26 2.42 2.8 2.8 0 0 0 .7.09 3 3 0 0 0 2.41-1.21l20.35-27.28 64.75 9.48zm95.58-91.8a40.83 40.83 0 0 1-4.57 14 31 31 0 0 1-4.54 6.21l-71.48-10.46a3 3 0 0 0-2.84 1.17l-17.22 23.08-9.41-56.08a3 3 0 0 0-5.37-1.29l-16.08 21.62-28.21-4.13a33 33 0 0 1-1.13-4.56 41 41 0 0 1 .86-17.47c4.73-17.82 21.43-30.53 38.9-29.57 29.74 1.64 37.27 30 37.57 31.25a3 3 0 0 0 5.45.87c.15-.24 15.45-23.84 44.84-19.53 21.29 3.09 36.19 23.24 33.23 44.89zm-83.7 245.94c-3.51-7.52-9.67-13-18.3-16.41l-20.69-10.63a7.73 7.73 0 0 1-2.78-2.47l-41.93-60.91a13.09 13.09 0 0 0-17.16-4.37 12.83 12.83 0 0 0-5.73 6.6 8.49 8.49 0 0 1-3.36 3.93c-17.45 11.18-31.73 16.4-36.41 13.3a41.58 41.58 0 0 1-9.25-9 13.19 13.19 0 0 0-11.61-5.09 14.6 14.6 0 0 0-11.47 7.74l-20.39 37.35c-3.85 7.05-2.47 15.79 3.29 20.77l6.47 5.59a54 54 0 0 0 21 11.29l106.86 29.6a50.66 50.66 0 0 0 13.58 1.85c1.63 0 3.27-.08 4.91-.24l28.46-2.69a17.85 17.85 0 0 0 13.63-9.11 18.61 18.61 0 0 0 .88-17.1zm-6.09 14.12a11.83 11.83 0 0 1-9 6.11l-28.46 2.7a44.86 44.86 0 0 1-16.33-1.42l-106.81-29.56a48.07 48.07 0 0 1-18.7-10.05l-6.47-5.59c-3.58-3.1-4.42-8.84-1.95-13.36l20.38-37.34a8.64 8.64 0 0 1 6.72-4.64 7.27 7.27 0 0 1 6.4 2.84 46.54 46.54 0 0 0 10.64 10.23 12.42 12.42 0 0 0 7 1.83c10 0 24.46-7.71 36-15.08a14.41 14.41 0 0 0 5.69-6.75 6.86 6.86 0 0 1 3.08-3.6c3.16-1.76 7.07-.69 9.3 2.54l41.93 60.91a13.77 13.77 0 0 0 5 4.41l20.83 10.7.29.13c7.21 2.79 12.32 7.3 15.17 13.41a12.59 12.59 0 0 1-.71 11.58zm-212.6-42.5l-33.1-9.21a3 3 0 1 0-1.6 5.78l33.1 9.16a3 3 0 1 0 1.6-5.78zm.59-23.6l-44.13-12.21a3 3 0 1 0-1.6 5.78l44.13 12.21a3 3 0 1 0 1.6-5.78zM482.88 359a3 3 0 0 0 .8-5.89l-33.1-9.16a3 3 0 1 0-1.6 5.78l33.1 9.16a3 3 0 0 0 .8.11zM500 340a3 3 0 0 0 .8-5.89l-24.8-6.92a3 3 0 1 0-1.6 5.78l24.82 6.87a3 3 0 0 0 .78.16zm-393-26.23a3 3 0 0 0-2.29-2.07L45.58 300a3 3 0 0 0-3 1.2L0 360.64V371l46.31-64.74L98 316.5l-53.49 54a3 3 0 0 0 1.54 5.05l45.66 9.07L0 446.36v7.23l101.08-68.06a3 3 0 0 0-1.08-5.43l-47.25-9.39 53.49-53.95a3 3 0 0 0 .76-2.99zm-81.5 81.48a3 3 0 0 0-2.21-1.85L0 388.79v6.12l17.49 3.47L0 422.43v10.2l25.1-34.52a3 3 0 0 0 .37-2.86zM349.1 414h-.1l-2-10.48-23.82-126.45A23.29 23.29 0 0 0 296 258.5l-65.07 12.29A23.3 23.3 0 0 0 212.39 298l25.86 136.89a23.33 23.33 0 0 0 22.88 19 23.82 23.82 0 0 0 4.33-.4l65.08-12.27A23.08 23.08 0 0 0 349.1 414zm-117-137.31l65.08-12.3a17.59 17.59 0 0 1 3.21-.3 17.31 17.31 0 0 1 16.8 13.3l-99 18.69a17.29 17.29 0 0 1 13.88-19.39zM219.26 302l99.05-18.71 22.36 118.38-99 18.71zm110.17 133.24l-65.09 12.3a17.3 17.3 0 0 1-20.19-13.77l-1.41-7.51 99-18.71 1.41 7.5a17.3 17.3 0 0 1-13.72 20.19z"/><path d="M302.78 426.17a8.62 8.62 0 1 0-8.49 10.22 8.87 8.87 0 0 0 1.62-.15 8.62 8.62 0 0 0 6.87-10.07zm-8 4.17a2.61 2.61 0 0 1-3.06-2.08 2.63 2.63 0 0 1 2.09-3.07 2.7 2.7 0 0 1 .49 0 2.62 2.62 0 0 1 .48 5.19zm-50.12-67.56a3 3 0 0 0 3.5 2.39l14.79-2.8a3 3 0 0 0 2.32-2.1l4.65-15.72 17.62 29.38a3 3 0 0 0 2.57 1.46h.17a3 3 0 0 0 2.56-1.75l8.49-18.52 13.11-2.48a3 3 0 1 0-1.11-5.9l-14.64 2.77a3 3 0 0 0-2.17 1.7L289.76 366l-18.21-30.36a3 3 0 0 0-5.45.69l-6.1 20.49-13 2.46a3 3 0 0 0-2.34 3.5zm212.61 243.97a11.74 11.74 0 0 0-4.49-2.07l.75-3.57A21.69 21.69 0 0 0 438.66 576l5.17-24.88a14.13 14.13 0 0 0-11-16.63l-32.45-6.75c-7.75-1.61-15.89 3.39-17.42 10.71l-5.26 25.31A21.68 21.68 0 0 0 356.85 581l-13.58 65.28a21.68 21.68 0 0 0 12.21 24.11l-5.27 25.31c-1.52 7.32 3.94 15.16 11.69 16.77l32.46 6.75a13.93 13.93 0 0 0 2.92.3 14.1 14.1 0 0 0 13.84-11.15l5.17-24.87a23.27 23.27 0 0 0 2.5.15A21.67 21.67 0 0 0 440 666.39l1.31-6.34a3.34 3.34 0 0 0 .43 0 3 3 0 0 0 2.93-2.39l4-19.26a3 3 0 0 0-2.15-3.5l1.65-7.91a13.62 13.62 0 0 0 2.47.25c3.69 0 6.45-1.74 7.07-4.68l2.06-9.94a5.9 5.9 0 0 0-2.5-5.87zm-68.47-67.09c.86-4.11 5.78-7 10.32-6.06l32.45 6.75a8.14 8.14 0 0 1 6.39 9.54l-5.16 24.78-49.16-10.22zm16.44 167.48a8.12 8.12 0 0 1-9.66 6.2l-32.45-6.75c-4.55-1-7.9-5.56-7-9.68l5.16-24.78 49.16 10.23zm42.26-107.26l-1.5 6.5-2.27 11.56L434 665a16 16 0 0 1-6.72 10 15.58 15.58 0 0 1-11.77 2.27L361.28 666a15.66 15.66 0 0 1-12.14-18.51l13.58-65.28a15.65 15.65 0 0 1 18.52-12.13l53.28 11.09 1 .21a15.57 15.57 0 0 1 11.98 18.5zm4.35 21.22a5.61 5.61 0 0 1-2.5.07l2.21-10.62a5.07 5.07 0 0 1 2.25 1.14z"/><path d="M369.18 619.24l7.89 1.64a3 3 0 0 0 2.92-1L390.65 607l5.44 34.17a3 3 0 0 0 5 1.75l15.28-13.83 10.63 2.17a3 3 0 1 0 1.22-5.87l-12.1-2.52a3 3 0 0 0-2.62.71l-12.31 11.14-5.61-35.26a3 3 0 0 0-5.27-1.44l-13.74 16.61-6.12-1.27a3 3 0 1 0-1.22 5.87zm373.39 24.97c-7.11-29.29-30.31-51.8-55.17-53.52-17.5-1.2-27.86 5.61-37 11.62-2.73 1.8-5.35 3.51-8.06 5a68.82 68.82 0 0 1 .49-10.95v-.17c1-7.58 3.42-17.28 9.45-25.86a3 3 0 0 0-4.91-3.45 58.47 58.47 0 0 0-8 16.56 20.14 20.14 0 0 0-6.09-7.27c-8.63-6.11-21.1-2.67-21.63-2.52a3 3 0 0 0-2.17 3.07c0 .54.91 13.45 9.53 19.57 4 2.85 8.88 3.63 13 3.63a36.08 36.08 0 0 0 4.44-.29 65.55 65.55 0 0 0 0 9.84c-3.22.61-6.52.91-10 1.23-10.92 1-23.3 2.14-36.24 14-18.39 16.86-22.53 48.94-9.83 76.26 11.73 25.27 30.19 45.51 48.18 52.84a39.42 39.42 0 0 0 15 3c12.13 0 22.76-5.49 31.16-9.84a82.25 82.25 0 0 1 9.75-4.57 77.28 77.28 0 0 1 10.74-2.43c12.56-2.27 29.76-5.39 40-21.31 11.38-17.78 14.2-46.28 7.36-74.44zm-120-52.83c-4.35-3.08-6-9.07-6.67-12.49 3.44-.54 9.65-.92 14 2.16s6 9.07 6.66 12.49c-3.49.53-9.7.91-14.04-2.16zm107.65 124c-8.8 13.72-23.88 16.46-36 18.65a79.74 79.74 0 0 0-11.65 2.67 86.46 86.46 0 0 0-10.53 4.9c-11.27 5.83-25.31 13.09-41.16 6.64-16.64-6.77-33.88-25.86-45-49.81-11.62-25-8.07-54.16 8.44-69.31 11.45-10.48 22.27-11.47 32.74-12.43a85.38 85.38 0 0 0 14-2.09 2.31 2.31 0 0 0 .44-.16 84.53 84.53 0 0 0 12.24-7.08c8.06-5.31 16.38-10.78 29.74-10.78 1.15 0 2.33 0 3.55.12 22.33 1.55 43.25 22.14 49.76 49 6.41 26.55 3.9 53.3-6.62 69.65zM232 735l-35.33-114.86a3 3 0 0 0-2.19-2c-.11 0-11-2.68-14.39-13.82s3.75-21.47 3.82-21.57a3 3 0 0 0 .44-2.64l-12.85-41.86a3 3 0 0 0-1.47-1.77 3 3 0 0 0-2.28-.21l-1.68.51c-5.71-12.83-24.75-14.53-42.1-12l-4.3-14a3 3 0 0 0-1.47-1.78 3 3 0 0 0-2.28-.21l-3.74 1.21-1.18-3.78a3 3 0 0 0-3.75-2l-8.81 2.71a3 3 0 0 0-1.77 1.46 3 3 0 0 0-.22 2.29l1.15 3.74-3.74 1.15a3 3 0 0 0-2 3.75L96.12 533c-16.51 7.54-32.72 20.11-30.18 34.59a3 3 0 0 0-1.49 3.53L77.3 613a3 3 0 0 0 2 2c.46.14 11.42 3.62 15 15.21a21.43 21.43 0 0 1-4 20 3 3 0 0 0-.66 2.92l35.31 114.88a3 3 0 0 0 2.87 2.12 2.88 2.88 0 0 0 .5 0 466.27 466.27 0 0 0 52-12.46 468.43 468.43 0 0 0 50-18.91A3 3 0 0 0 232 735zM106.17 510.85l.27.87-3.07.94-.27-.87zm2.78 6.37l2.12-.65 3.74-1.15 3 9.69-16.29 5-3-9.68zM110.4 534a92.53 92.53 0 0 1 26.43-4.23c11 0 20.09 2.69 23.43 8.82l-88.52 27.2C70.7 553.57 89.84 540.3 110.4 534zm68.16 217.84a464.55 464.55 0 0 1-48.68 11.81L95.82 652.8a27.44 27.44 0 0 0 4.2-24.4c-3.68-12-13.55-17-17.42-18.62l-11.54-37.52 94-28.91 1.53-.47 11.56 37.61c-2.17 3.56-7.43 13.87-3.84 25.55s13.1 16 17 17.39l34.06 110.82a459.09 459.09 0 0 1-46.81 17.57zM443 791.71l-.06-.18a10.34 10.34 0 0 0-13.1-6.49l-31.16 10.42A10.57 10.57 0 0 0 393 800h10.7l28-9.36a4.44 4.44 0 0 1 1.39-.19 4.37 4.37 0 0 1 4.11 3l.06.2a4.35 4.35 0 0 1-.22 3.32 4.21 4.21 0 0 1-2.5 2.1l-3.11 1h10.68c.1 0 .2-.29.3-.48a10.05 10.05 0 0 0 .59-7.88zm357-431.07l-18.76 26.22a3 3 0 0 0 1.86 4.69l16.9 3.36v-6.12l-11.17-2.22L800 371zm0 61.79l-34.42 47.33a3 3 0 0 0 4.1 4.25L800 453.59v-7.23l-19.57 13.18L800 432.63z"/></g></svg>